<svg xmlns:xlink="http://www.w3.org/1999/xlink" width="624" height="442" viewBox="0 0 624 442" fill="none" xmlns="http://www.w3.org/2000/svg">
<rect width="624" height="442" fill=""></rect>
<path d="M575.498 37.9204C575.454 37.0931 574.748 36.4582 573.92 36.5021L560.439 37.2185C559.612 37.2625 558.977 37.9687 559.021 38.796C559.065 39.6232 559.771 40.2582 560.599 40.2143L572.582 39.5775L573.218 51.5606C573.262 52.3878 573.969 53.0228 574.796 52.9789C575.623 52.9349 576.258 52.2286 576.214 51.4014L575.498 37.9204ZM477.115 148.003L575.115 39.0029L572.885 36.9971L474.885 145.997L477.115 148.003Z" fill="#007AFF"></path>
<path d="M585.061 222.061C585.646 221.475 585.646 220.525 585.061 219.939L575.515 210.393C574.929 209.808 573.979 209.808 573.393 210.393C572.808 210.979 572.808 211.929 573.393 212.515L581.879 221L573.393 229.485C572.808 230.071 572.808 231.021 573.393 231.607C573.979 232.192 574.929 232.192 575.515 231.607L585.061 222.061ZM525 222.5L584 222.5L584 219.5L525 219.5L525 222.5Z" fill="#007AFF"></path>
<path d="M29.9393 219.939C29.3535 220.525 29.3535 221.475 29.9393 222.061L39.4853 231.607C40.0711 232.192 41.0208 232.192 41.6066 231.607C42.1924 231.021 42.1924 230.071 41.6066 229.485L33.1213 221L41.6066 212.515C42.1924 211.929 42.1924 210.979 41.6066 210.393C41.0208 209.808 40.0711 209.808 39.4853 210.393L29.9393 219.939ZM97 219.5H31V222.5H97V219.5Z" fill="#007AFF"></path>
<path d="M585.498 403.08C585.454 403.907 584.748 404.542 583.92 404.498L570.439 403.782C569.612 403.738 568.977 403.031 569.021 402.204C569.065 401.377 569.771 400.742 570.599 400.786L582.582 401.423L583.218 389.439C583.262 388.612 583.969 387.977 584.796 388.021C585.623 388.065 586.258 388.771 586.214 389.599L585.498 403.08ZM487.115 292.997L585.115 401.997L582.885 404.003L484.885 295.003L487.115 292.997Z" fill="#007AFF"></path>
<path d="M36.5021 37.9204C36.5461 37.0931 37.2523 36.4582 38.0796 36.5021L51.5606 37.2185C52.3878 37.2625 53.0228 37.9687 52.9789 38.796C52.9349 39.6232 52.2286 40.2582 51.4014 40.2143L39.4183 39.5775L38.7815 51.5606C38.7376 52.3878 38.0313 53.0228 37.204 52.9789C36.3768 52.9349 35.7418 52.2286 35.7857 51.4014L36.5021 37.9204ZM134.885 148.003L36.8846 39.0029L39.1155 36.9971L137.115 145.997L134.885 148.003Z" fill="#007AFF"></path>
<path d="M46.5021 403.08C46.5461 403.907 47.2523 404.542 48.0796 404.498L61.5606 403.782C62.3878 403.738 63.0228 403.031 62.9789 402.204C62.9349 401.377 62.2286 400.742 61.4014 400.786L49.4183 401.423L48.7815 389.439C48.7376 388.612 48.0313 387.977 47.204 388.021C46.3768 388.065 45.7418 388.771 45.7857 389.599L46.5021 403.08ZM144.885 292.997L46.8846 401.997L49.1155 404.003L147.115 295.003L144.885 292.997Z" fill="#007AFF"></path>
<path d="M476 221.5C476 312.903 401.903 387 310.5 387C219.097 387 145 312.903 145 221.5C145 130.097 219.097 56 310.5 56C401.903 56 476 130.097 476 221.5Z" fill="#007AFF" stroke="#007AFF" stroke-width="2px"></path>
<path d="M503.5 220.5C503.5 243.985 482.401 265.741 447.121 281.712C411.978 297.621 363.323 307.5 309.5 307.5C255.677 307.5 207.022 297.621 171.879 281.712C136.599 265.741 115.5 243.985 115.5 220.5C115.5 197.015 136.599 175.259 171.879 159.288C207.022 143.379 255.677 133.5 309.5 133.5C363.323 133.5 411.978 143.379 447.121 159.288C482.401 175.259 503.5 197.015 503.5 220.5Z" fill="rgb(30, 32, 35)" stroke="#007AFF" stroke-width="3px"></path>
<path d="M370 220.5C370 254.466 342.466 282 308.5 282C274.534 282 247 254.466 247 220.5C247 186.534 274.534 159 308.5 159C342.466 159 370 186.534 370 220.5Z" fill="#007AFF" stroke="#007AFF" stroke-width="2px"></path>
</svg>