<svg xmlns:xlink="http://www.w3.org/1999/xlink" width="624" height="442" viewBox="0 0 624 442" fill="none" xmlns="http://www.w3.org/2000/svg">
<rect width="624" height="442" fill=""></rect>
<rect x="20" y="21" width="583" height="400" rx="5" stroke="#007AFF" stroke-width="2px" fill="none"></rect>
<path d="M148.5 20L158.22 63.0328L195.523 39.4774L171.967 76.7796L215 86.5L171.967 96.2204L195.523 133.523L158.22 109.967L148.5 153L138.78 109.967L101.477 133.523L125.033 96.2204L82 86.5L125.033 76.7796L101.477 39.4774L138.78 63.0328L148.5 20Z" fill="#007AFF"></path>
<path d="M148.5 153L158.22 196.033L195.523 172.477L171.967 209.78L215 219.5L171.967 229.22L195.523 266.523L158.22 242.967L148.5 286L138.78 242.967L101.477 266.523L125.033 229.22L82 219.5L125.033 209.78L101.477 172.477L138.78 196.033L148.5 153Z" fill="#007AFF"></path>
<path d="M148.5 286L158.22 329.033L195.523 305.477L171.967 342.78L215 352.5L171.967 362.22L195.523 399.523L158.22 375.967L148.5 419L138.78 375.967L101.477 399.523L125.033 362.22L82 352.5L125.033 342.78L101.477 305.477L138.78 329.033L148.5 286Z" fill="#007AFF"></path>
<rect x="263" y="21" width="175" height="400" fill="#007AFF" stroke="#007AFF" stroke-width="2px"></rect>
<circle cx="517" cy="125" r="11" fill="#007AFF"></circle>
<circle cx="517" cy="318" r="11" fill="#007AFF"></circle>
<path d="M439 216L604 216" stroke="#007AFF" stroke-width="2px" fill="none"></path>
<path d="M263 216L439 216" stroke="#FFFFFF" stroke-width="2px" fill="none"></path>
<path d="M517 280.236L525.254 305.639L525.479 306.33H526.205H552.916L531.306 322.03L530.719 322.457L530.943 323.148L539.197 348.552L517.588 332.852L517 332.425L516.412 332.852L494.803 348.552L503.057 323.148L503.281 322.457L502.694 322.03L481.084 306.33H507.795H508.521L508.746 305.639L517 280.236Z" fill="#FFFFFF" stroke="#007AFF" stroke-width="2px"></path>
<path d="M351 87.2361L359.254 112.639L359.479 113.33H360.205H386.916L365.306 129.03L364.719 129.457L364.943 130.148L373.197 155.552L351.588 139.852L351 139.425L350.412 139.852L328.803 155.552L337.057 130.148L337.281 129.457L336.694 129.03L315.084 113.33H341.795H342.521L342.746 112.639L351 87.2361Z" fill="#FFFFFF" stroke="#007AFF" stroke-width="2px"></path>
<circle cx="346" cy="318" r="11" fill="#FFFFFF"></circle>
</svg>