<svg xmlns:xlink="http://www.w3.org/1999/xlink" width="624" height="442" viewBox="0 0 624 442" fill="none" xmlns="http://www.w3.org/2000/svg">
<rect width="624" height="442" ></rect>
<rect x="35" y="37" width="554" height="369" rx="5" stroke="#007AFF" stroke-width="2px" fill="none"></rect>
<path d="M18 220.5C18 216.082 19.9205 211.69 23.734 207.355C27.5532 203.014 33.2312 198.779 40.6251 194.713C55.4122 186.581 76.8756 179.226 103.484 173.037C156.684 160.663 230.229 153 311.5 153C392.771 153 466.316 160.663 519.516 173.037C546.124 179.226 567.588 186.581 582.375 194.713C589.769 198.779 595.447 203.014 599.266 207.355C603.08 211.69 605 216.082 605 220.5C605 224.918 603.08 229.31 599.266 233.645C595.447 237.986 589.769 242.221 582.375 246.287C567.588 254.419 546.124 261.774 519.516 267.963C466.316 280.337 392.771 288 311.5 288C230.229 288 156.684 280.337 103.484 267.963C76.8756 261.774 55.4122 254.419 40.6251 246.287C33.2312 242.221 27.5532 237.986 23.734 233.645C19.9205 229.31 18 224.918 18 220.5Z" fill="#007AFF" stroke="#007AFF" stroke-width="2px"></path>
<circle cx="311.5" cy="220.5" r="123" fill="#FFFFFF" stroke="#007AFF" stroke-width="3px"></circle>
<path d="M304.92 166.6H270.504V271H304.92C339.048 271 365.976 258.616 365.976 218.728C365.976 178.984 339.048 166.6 304.92 166.6ZM305.352 187.336C323.496 187.336 339.912 191.224 339.912 218.728C339.912 246.376 323.496 250.264 305.352 250.264H295.128V187.336H305.352Z" fill="#007AFF"></path>
<path d="M476.543 111.375C476.346 112.18 476.838 112.992 477.642 113.19L490.752 116.41C491.557 116.608 492.369 116.116 492.567 115.312C492.765 114.507 492.273 113.695 491.468 113.497L479.815 110.634L482.677 98.9809C482.875 98.1764 482.383 97.364 481.578 97.1664C480.774 96.9687 479.961 97.4607 479.764 98.2652L476.543 111.375ZM565.952 56.7169L477.223 110.45L478.777 113.016L567.506 59.2831L565.952 56.7169Z" fill="#007AFF"></path>
<path d="M476.543 333.359C476.346 332.554 476.838 331.742 477.642 331.544L490.752 328.324C491.557 328.126 492.369 328.618 492.567 329.423C492.765 330.227 492.273 331.04 491.468 331.237L479.815 334.1L482.677 345.753C482.875 346.558 482.383 347.37 481.578 347.568C480.774 347.766 479.961 347.274 479.764 346.469L476.543 333.359ZM565.952 388.017L477.223 334.284L478.777 331.718L567.506 385.451L565.952 388.017Z" fill="#007AFF"></path>
<path d="M146.185 111.375C146.383 112.18 145.891 112.992 145.086 113.19L131.976 116.41C131.172 116.608 130.359 116.116 130.162 115.312C129.964 114.507 130.456 113.695 131.26 113.497L142.914 110.634L140.051 98.9809C139.854 98.1764 140.346 97.364 141.15 97.1664C141.955 96.9687 142.767 97.4607 142.965 98.2652L146.185 111.375ZM56.777 56.7169L145.505 110.45L143.951 113.016L55.223 59.2831L56.777 56.7169Z" fill="#007AFF"></path>
<path d="M146.185 333.359C146.383 332.554 145.891 331.742 145.086 331.544L131.976 328.324C131.172 328.126 130.359 328.618 130.162 329.423C129.964 330.227 130.456 331.04 131.26 331.237L142.914 334.1L140.051 345.753C139.854 346.558 140.346 347.37 141.15 347.568C141.955 347.766 142.767 347.274 142.965 346.469L146.185 333.359ZM56.777 388.017L145.505 334.284L143.951 331.718L55.223 385.451L56.777 388.017Z" fill="#007AFF"></path>
</svg>